<svg xmlns="http://www.w3.org/2000/svg" version="1.0" viewBox="0 0 1024 1024">
  <path fill="#323131" d="M0 0h1024v1024H0z"/>
  <path fill="#fff" d="M309.7 280.9c-5.8.4-8.2 1.1-9.1 2.3-2.5 3.5-2.7 477.7-.2 483 1.3 2.8 7.9 3.1 42 2.4 46.7-1.1 71.5-2.3 73.2-3.7 1.2-1 1.4-13.7 1.4-83.5 0-65.3.3-82.4 1.3-82.4 8.1 0 69.8-1.1 84.7-1.6 54.2-1.5 86.9-6.6 116-18.1 22.5-8.9 33.7-15.4 45.7-26.7 12.4-11.7 26-32.5 33.3-51 13.4-34 13.9-89.7 1.1-124.7-13.7-37.4-46.8-67.2-90.8-81.9-34.9-11.6-69.1-14.1-200.8-14.5-49.5-.1-93.5 0-97.8.4zM509 379c26.5 1.1 39 3.3 49 8.6a54.3 54.3 0 0 1 27 36c3.7 14.5 2.1 25-6.3 42.4-7.4 15.2-19.4 24.7-39.7 31.4-15.9 5.3-25.4 6-69 5.1-37-.7-50.3-1.4-51.7-2.9-1-1-1.1-118.5 0-120.9.7-1.8 2.3-1.9 35-1.2 18.8.3 43.9 1 55.7 1.5zm164.2 270a7 7 0 0 0-3.2 3.4c-1.1 3-1.7 106.8-.6 111.4.5 2.3 1.5 3.4 3.4 4 1.5.4 27 .6 56.7.5 53-.3 65.9-1 66.7-3.7.2-.6.2-26.4 0-57.3-.3-52-.4-56.4-2-57.2-2.4-1.3-118.1-2.4-121-1.1z"/>
</svg>
